<?xml version="1.0" encoding="utf-8"?>
<!-- Generator: Adobe Illustrator 24.1.2, SVG Export Plug-In . SVG Version: 6.00 Build 0)  -->
<svg version="1.1" xmlns="http://www.w3.org/2000/svg" xmlns:xlink="http://www.w3.org/1999/xlink" x="0px" y="0px"
	 viewBox="0 0 500 500" style="enable-background:new 0 0 500 500;" xml:space="preserve">
<style type="text/css">
	.st0{fill:#FFFFFF;}
	.st1{fill:url(#SVGID_1_);}
	.st2{fill:url(#SVGID_2_);}
	.st3{fill:url(#SVGID_3_);}
	.st4{fill:url(#SVGID_4_);}
	.st5{opacity:0.33;fill:#FFFFFF;}
	.st6{fill:url(#SVGID_5_);}
	.st7{fill:url(#SVGID_6_);}
	.st8{fill:url(#SVGID_7_);}
	.st9{opacity:0.09;fill:none;stroke:#000000;stroke-width:1.8919;stroke-miterlimit:10;}
	.st10{fill:url(#SVGID_8_);}
	.st11{fill:url(#SVGID_9_);}
	.st12{fill:none;stroke:#000000;stroke-width:1.8919;stroke-miterlimit:10;}
	.st13{fill:url(#SVGID_10_);}
	.st14{clip-path:url(#SVGID_12_);fill:url(#SVGID_13_);}
	.st15{clip-path:url(#SVGID_12_);fill:url(#SVGID_14_);}
	.st16{fill:url(#SVGID_15_);}
	.st17{fill:url(#SVGID_16_);}
	.st18{fill:#D4D4D4;}
	.st19{fill:url(#SVGID_17_);}
	.st20{fill:#76C9F0;}
	.st21{fill:url(#SVGID_18_);}
	.st22{clip-path:url(#SVGID_20_);fill:url(#SVGID_21_);}
	.st23{clip-path:url(#SVGID_20_);fill:url(#SVGID_22_);}
	.st24{fill:#A3A3A3;}
	.st25{fill:#B9B9B9;}
	.st26{opacity:0.48;}
	.st27{clip-path:url(#SVGID_24_);fill:url(#SVGID_25_);}
	.st28{fill:url(#SVGID_26_);}
</style>
<g id="BACKGROUND">
	<rect class="st0" width="500" height="500"/>
</g>
<g id="OBJECTS">
	<g>
		
			<linearGradient id="SVGID_1_" gradientUnits="userSpaceOnUse" x1="69.8485" y1="426.8991" x2="173.0832" y2="329.6588" gradientTransform="matrix(0.7071 -0.7071 0.7071 0.7071 -103.5534 250)">
			<stop  offset="0" style="stop-color:#FF8533"/>
			<stop  offset="0.9964" style="stop-color:#FFD052"/>
		</linearGradient>
		<path class="st1" d="M249.85,357.01c0,0-59.13,26.87-26.49,77.91l7.27-10.9c0,0,1.6,22.89,21.04,49.88
			c18.59-27.58,19.48-50.51,19.48-50.51l7.61,10.66C309.79,382.03,249.85,357.01,249.85,357.01z"/>
		
			<linearGradient id="SVGID_2_" gradientUnits="userSpaceOnUse" x1="117.0295" y1="382.8422" x2="180.6624" y2="320.2356" gradientTransform="matrix(0.7071 -0.7071 0.7071 0.7071 -103.5534 250)">
			<stop  offset="3.558720e-03" style="stop-color:#FFD052"/>
			<stop  offset="1" style="stop-color:#FFE9AE"/>
		</linearGradient>
		<path class="st2" d="M249.85,357.01c0,0-36.88,16.76-16.53,48.6l4.54-6.8c0,0,1,14.28,13.12,31.11
			c11.6-17.21,12.15-31.51,12.15-31.51l4.75,6.65C287.24,372.61,249.85,357.01,249.85,357.01z"/>
		
			<linearGradient id="SVGID_3_" gradientUnits="userSpaceOnUse" x1="235.8603" y1="351.3223" x2="176.2907" y2="253.9489" gradientTransform="matrix(0.7071 -0.7071 0.7071 0.7071 -103.5534 250)">
			<stop  offset="0" style="stop-color:#767B7F"/>
			<stop  offset="1" style="stop-color:#A3A3A3"/>
		</linearGradient>
		<polygon class="st3" points="278.11,324.48 219.74,324.8 219.69,308.57 278.06,308.26 		"/>
		
			<linearGradient id="SVGID_4_" gradientUnits="userSpaceOnUse" x1="146.9981" y1="246.4599" x2="242.4566" y2="355.5555" gradientTransform="matrix(0.7071 -0.7071 0.7071 0.7071 -103.5534 250)">
			<stop  offset="3.558720e-03" style="stop-color:#F02E54"/>
			<stop  offset="1" style="stop-color:#8F1931"/>
		</linearGradient>
		<path class="st4" d="M195.34,255.86c0,0-29.27,25.24-29.2,47.67c0.07,24.2,4.92,49.04,18.08,78.33
			c7.02,15.63,6.68-7.44,7.33-21.88c1.13-25.27,7.89-31.54,23.34-41.23C214.88,318.74,207.79,298.1,195.34,255.86z"/>
		<path class="st5" d="M195.34,255.86c0,0-29.27,25.24-29.2,47.67c0.07,24.2,4.92,49.04,18.08,78.33c1.32,2.93,2.37,4.5,3.23,5.02
			c0,0-15.28-38.48-15.73-64.35C171.26,296.66,174.82,283.27,195.34,255.86"/>
		
			<linearGradient id="SVGID_5_" gradientUnits="userSpaceOnUse" x1="248.0439" y1="381.8685" x2="217.3649" y2="227.271" gradientTransform="matrix(0.7071 -0.7071 0.7071 0.7071 -103.5534 250)">
			<stop  offset="3.558720e-03" style="stop-color:#F02E54"/>
			<stop  offset="1" style="stop-color:#8F1931"/>
		</linearGradient>
		<path class="st6" d="M302.41,255.29c0,0,29.42,24.93,29.5,47.35c0.08,24.2-4.62,49.09-17.59,78.52c-6.92,15.7-6.73-7.37-7.47-21.8
			c-1.29-25.26-8.08-31.45-23.59-40.98C283.25,318.38,290.22,297.66,302.41,255.29z"/>
		
			<linearGradient id="SVGID_6_" gradientUnits="userSpaceOnUse" x1="276.0368" y1="151.4578" x2="346.6577" y2="318.2509" gradientTransform="matrix(0.7071 -0.7071 0.7071 0.7071 -103.5534 250)">
			<stop  offset="3.558720e-03" style="stop-color:#EEF4FA"/>
			<stop  offset="1" style="stop-color:#CDDEED"/>
		</linearGradient>
		<path class="st7" d="M285.7,66.94c-24.84-33.9-37.52-35.03-37.52-35.03s-12.67,1.27-37.3,35.43
			c-26.01,36.08-26.63,74.88-26.78,101.57c-0.19,34.53,10.68,102.67,30.78,149.84l34.19-0.36l34.19,0
			c19.8-47.38,30.26-115.63,29.85-150.16C312.79,141.53,311.94,102.74,285.7,66.94z"/>
		
			<linearGradient id="SVGID_7_" gradientUnits="userSpaceOnUse" x1="285.6804" y1="169.9507" x2="345.5925" y2="311.4518" gradientTransform="matrix(0.7071 -0.7071 0.7071 0.7071 -103.5534 250)">
			<stop  offset="3.558720e-03" style="stop-color:#EEF4FA"/>
			<stop  offset="1" style="stop-color:#CDDEED"/>
		</linearGradient>
		<path class="st8" d="M223.55,318.65l25.51-0.27l34.19,0c19.8-47.38,30.26-115.63,29.85-150.16c-0.31-26.69-1.17-65.48-27.4-101.28
			c-24.84-33.9-37.52-35.03-37.52-35.03"/>
		<line class="st9" x1="219.72" y1="318.69" x2="278.23" y2="318.38"/>
		
			<linearGradient id="SVGID_8_" gradientUnits="userSpaceOnUse" x1="173.0094" y1="238.2029" x2="236.7503" y2="316.8469" gradientTransform="matrix(0.7071 -0.7071 0.7071 0.7071 -103.5534 250)">
			<stop  offset="0" style="stop-color:#C7C7C7"/>
			<stop  offset="1" style="stop-color:#A3A3A3"/>
		</linearGradient>
		<path class="st10" d="M214.88,318.74l34.19-0.36l34.19,0c4-9.58,7.62-20.01,10.84-30.84l-90.25,0.48
			C207.14,298.81,210.82,309.21,214.88,318.74z"/>
		
			<linearGradient id="SVGID_9_" gradientUnits="userSpaceOnUse" x1="219.3767" y1="276.7293" x2="232.4199" y2="316.9457" gradientTransform="matrix(0.7071 -0.7071 0.7071 0.7071 -103.5534 250)">
			<stop  offset="0" style="stop-color:#1D262D"/>
			<stop  offset="1" style="stop-color:#1D262D;stop-opacity:0"/>
		</linearGradient>
		<polygon class="st11" points="250.74,262.47 283.25,318.38 277.73,319.52 278.11,324.48 255.44,324.61 		"/>
		<line class="st12" x1="193.4" y1="100.88" x2="303.39" y2="100.29"/>
		
			<linearGradient id="SVGID_10_" gradientUnits="userSpaceOnUse" x1="360.3875" y1="107.8113" x2="492.1876" y2="213.5191" gradientTransform="matrix(0.7071 -0.7071 0.7071 0.7071 -103.5534 250)">
			<stop  offset="3.558720e-03" style="stop-color:#F02E54"/>
			<stop  offset="1" style="stop-color:#8F1931"/>
		</linearGradient>
		<path class="st13" d="M248.18,31.9c0,0-12.67,1.27-37.3,35.43c-7.98,11.07-13.56,22.39-17.48,33.55l109.99-0.59
			c-3.99-11.11-9.64-22.37-17.69-33.36C260.86,33.04,248.18,31.9,248.18,31.9z"/>
		<g>
			<defs>
				<path id="SVGID_11_" d="M285.7,66.94c-24.84-33.9-37.52-35.03-37.52-35.03s-12.67,1.27-37.3,35.43
					c-26.01,36.08-26.63,74.88-26.78,101.57c-0.19,34.53,10.68,102.67,30.78,149.84l34.19-0.36l34.19,0
					c19.8-47.38,30.26-115.63,29.85-150.16C312.79,141.53,311.94,102.74,285.7,66.94z"/>
			</defs>
			<clipPath id="SVGID_12_">
				<use xlink:href="#SVGID_11_"  style="overflow:visible;"/>
			</clipPath>
			
				<linearGradient id="SVGID_13_" gradientUnits="userSpaceOnUse" x1="528.6813" y1="336.9118" x2="284.6816" y2="83.9123" gradientTransform="matrix(0.7071 -0.7071 0.7071 0.7071 -103.5534 250)">
				<stop  offset="0" style="stop-color:#8F1931"/>
				<stop  offset="0.9964" style="stop-color:#F02E54"/>
			</linearGradient>
			<polygon class="st14" points="315.42,111.86 183.66,113.23 183.6,107.55 315.36,106.19 			"/>
			
				<linearGradient id="SVGID_14_" gradientUnits="userSpaceOnUse" x1="521.2647" y1="344.0656" x2="277.265" y2="91.0662" gradientTransform="matrix(0.7071 -0.7071 0.7071 0.7071 -103.5534 250)">
				<stop  offset="0" style="stop-color:#8F1931"/>
				<stop  offset="0.9964" style="stop-color:#F02E54"/>
			</linearGradient>
			<polygon class="st15" points="316.63,121.25 184.87,122.61 184.83,118.83 316.6,117.46 			"/>
		</g>
		<line class="st9" x1="203.84" y1="288.02" x2="294.1" y2="287.54"/>
		
			<linearGradient id="SVGID_15_" gradientUnits="userSpaceOnUse" x1="171.3046" y1="278.1467" x2="246.0342" y2="385.0383" gradientTransform="matrix(0.7071 -0.7071 0.7071 0.7071 -103.5534 250)">
			<stop  offset="3.558720e-03" style="stop-color:#F02E54"/>
			<stop  offset="1" style="stop-color:#8F1931"/>
		</linearGradient>
		<path class="st16" d="M248.89,261.09c0,0-6.45-1.39-6.3,47.72c0.15,49.11,2.87,93.58,6.74,93.56c3.87-0.02,6.31-44.52,6.16-93.63
			C255.34,259.63,248.89,261.09,248.89,261.09z"/>
		<path class="st5" d="M248.89,261.09c0,0-6.45-1.39-6.3,47.72c0.15,49.11,2.87,93.58,6.74,93.56c0,0-2.99-16.68-4.18-54.61
			C243.95,309.82,243.63,267.37,248.89,261.09z"/>
		<g>
			
				<linearGradient id="SVGID_16_" gradientUnits="userSpaceOnUse" x1="300.983" y1="223.3097" x2="327.9652" y2="279.8038" gradientTransform="matrix(0.7071 -0.7071 0.7071 0.7071 -103.5534 250)">
				<stop  offset="0" style="stop-color:#1D262D"/>
				<stop  offset="0.6767" style="stop-color:#1D262D;stop-opacity:0.3233"/>
				<stop  offset="1" style="stop-color:#1D262D;stop-opacity:0"/>
			</linearGradient>
			<circle class="st17" cx="249.09" cy="188.68" r="43.08"/>
			
				<ellipse transform="matrix(0.7071 -0.7071 0.7071 0.7071 -60.3139 230.3886)" class="st18" cx="247.95" cy="188" rx="42.84" ry="42.84"/>
			
				<linearGradient id="SVGID_17_" gradientUnits="userSpaceOnUse" x1="273.293" y1="159.3252" x2="326.2936" y2="283.3147" gradientTransform="matrix(0.7071 -0.7071 0.7071 0.7071 -103.5534 250)">
				<stop  offset="0" style="stop-color:#C7C7C7"/>
				<stop  offset="1" style="stop-color:#A3A3A3"/>
			</linearGradient>
			<circle class="st19" cx="248.69" cy="188" r="42.32"/>
			
				<ellipse transform="matrix(0.7071 -0.7071 0.7071 0.7071 -60.4836 230.3176)" class="st20" cx="247.78" cy="188.17" rx="33.07" ry="33.07"/>
			
				<linearGradient id="SVGID_18_" gradientUnits="userSpaceOnUse" x1="266.9807" y1="166.5192" x2="329.6179" y2="262.2418" gradientTransform="matrix(0.7071 -0.7071 0.7071 0.7071 -103.5534 250)">
				<stop  offset="0" style="stop-color:#ADE5FF"/>
				<stop  offset="1" style="stop-color:#76C9F0"/>
			</linearGradient>
			<circle class="st21" cx="248.4" cy="188.45" r="31.73"/>
			<g>
				<defs>
					
						<ellipse id="SVGID_19_" transform="matrix(0.7071 -0.7071 0.7071 0.7071 -60.5013 230.844)" cx="248.4" cy="188.45" rx="31.73" ry="31.73"/>
				</defs>
				<clipPath id="SVGID_20_">
					<use xlink:href="#SVGID_19_"  style="overflow:visible;"/>
				</clipPath>
				
					<linearGradient id="SVGID_21_" gradientUnits="userSpaceOnUse" x1="322.9919" y1="178.9749" x2="256.0325" y2="223.3128" gradientTransform="matrix(0.7071 -0.7071 0.7071 0.7071 -103.5534 250)">
					<stop  offset="0" style="stop-color:#F9FBFC"/>
					<stop  offset="1" style="stop-color:#F9FBFC;stop-opacity:0"/>
				</linearGradient>
				<polygon class="st22" points="251.33,150.04 223.56,221.73 235.2,226.24 262.97,154.54 				"/>
				
					<linearGradient id="SVGID_22_" gradientUnits="userSpaceOnUse" x1="331.5724" y1="191.9331" x2="264.613" y2="236.271" gradientTransform="matrix(0.7071 -0.7071 0.7071 0.7071 -103.5534 250)">
					<stop  offset="0" style="stop-color:#F9FBFC"/>
					<stop  offset="1" style="stop-color:#F9FBFC;stop-opacity:0"/>
				</linearGradient>
				<polygon class="st23" points="268.78,157.56 241.01,229.26 246.87,231.52 274.64,159.83 				"/>
			</g>
			<g>
				<g>
					<path class="st24" d="M211.99,190.25c-0.55-0.84-1.66-1.07-2.5-0.53c-0.84,0.55-1.07,1.66-0.53,2.5
						c0.55,0.84,1.66,1.07,2.5,0.53C212.3,192.21,212.54,191.09,211.99,190.25z"/>
					<path class="st24" d="M214.55,201.69c-0.55-0.84-1.66-1.07-2.5-0.53c-0.84,0.55-1.07,1.66-0.53,2.5
						c0.55,0.84,1.66,1.07,2.5,0.53C214.86,203.65,215.09,202.53,214.55,201.69z"/>
					<path class="st24" d="M212.19,180.39c-0.55-0.84-1.66-1.07-2.5-0.53c-0.84,0.55-1.07,1.66-0.53,2.5
						c0.55,0.84,1.66,1.07,2.5,0.53C212.5,182.34,212.74,181.22,212.19,180.39z"/>
					<path class="st24" d="M228.56,218c-0.99-0.09-1.87,0.64-1.96,1.64c-0.09,0.99,0.64,1.87,1.64,1.96
						c0.99,0.09,1.87-0.64,1.96-1.64C230.29,218.97,229.55,218.09,228.56,218z"/>
					<path class="st24" d="M239.12,223.09c-0.99-0.09-1.87,0.64-1.96,1.64c-0.09,0.99,0.64,1.87,1.64,1.96
						c0.99,0.09,1.87-0.64,1.96-1.64C240.84,224.06,240.11,223.18,239.12,223.09z"/>
					<path class="st24" d="M219.85,210.33c-0.99-0.09-1.87,0.64-1.96,1.64c-0.09,0.99,0.64,1.87,1.64,1.96
						c0.99,0.09,1.87-0.64,1.96-1.64C221.58,211.3,220.85,210.42,219.85,210.33z"/>
					<path class="st24" d="M260.17,222.77c-0.68,0.73-0.65,1.87,0.08,2.55c0.73,0.68,1.87,0.65,2.55-0.08
						c0.68-0.73,0.65-1.87-0.08-2.55C261.99,222,260.85,222.04,260.17,222.77z"/>
					<path class="st24" d="M270.67,217.57c-0.68,0.73-0.65,1.87,0.08,2.55c0.73,0.68,1.87,0.65,2.55-0.08
						c0.68-0.73,0.65-1.87-0.08-2.55C272.5,216.81,271.36,216.84,270.67,217.57z"/>
					<path class="st24" d="M248.77,224.92c-0.68,0.73-0.65,1.87,0.08,2.55c0.73,0.68,1.87,0.65,2.55-0.08
						c0.68-0.73,0.65-1.87-0.08-2.55C250.59,224.15,249.45,224.19,248.77,224.92z"/>
					<path class="st24" d="M283.37,200.45c0.15,0.99,1.07,1.67,2.05,1.52c0.99-0.15,1.67-1.07,1.52-2.05
						c-0.15-0.99-1.07-1.67-2.05-1.52C283.9,198.55,283.22,199.47,283.37,200.45z"/>
					<path class="st24" d="M285.48,189.45c0.15,0.99,1.07,1.67,2.05,1.52c0.99-0.15,1.67-1.07,1.52-2.05
						c-0.15-0.99-1.07-1.67-2.05-1.52C286.01,187.55,285.33,188.47,285.48,189.45z"/>
					<path class="st24" d="M277.8,210.37c0.15,0.99,1.07,1.67,2.05,1.52c0.99-0.15,1.67-1.07,1.52-2.05
						c-0.15-0.99-1.07-1.67-2.05-1.52C278.34,208.46,277.66,209.38,277.8,210.37z"/>
					<path class="st24" d="M279.49,169.87c0.85,0.52,1.96,0.24,2.48-0.61c0.52-0.85,0.24-1.96-0.61-2.48
						c-0.85-0.52-1.96-0.24-2.48,0.61C278.36,168.24,278.64,169.35,279.49,169.87z"/>
					<path class="st24" d="M272.76,161.42c0.85,0.52,1.96,0.24,2.48-0.61c0.52-0.85,0.24-1.96-0.61-2.48
						c-0.85-0.52-1.96-0.24-2.48,0.61C271.64,159.79,271.91,160.91,272.76,161.42z"/>
					<path class="st24" d="M284.48,180.06c0.85,0.52,1.96,0.24,2.48-0.61c0.52-0.85,0.24-1.96-0.61-2.48
						c-0.85-0.52-1.96-0.24-2.48,0.61C283.35,178.43,283.63,179.54,284.48,180.06z"/>
					<path class="st24" d="M254.37,151.83c0.93-0.36,1.4-1.4,1.04-2.33c-0.36-0.93-1.4-1.4-2.33-1.04c-0.93,0.36-1.4,1.4-1.04,2.33
						C252.39,151.72,253.44,152.19,254.37,151.83z"/>
					<path class="st24" d="M242.8,151.86c0.93-0.36,1.4-1.4,1.04-2.33c-0.36-0.93-1.4-1.4-2.33-1.04c-0.93,0.36-1.4,1.4-1.04,2.33
						C240.82,151.75,241.87,152.22,242.8,151.86z"/>
					<path class="st24" d="M264.88,155.56c0.93-0.36,1.4-1.4,1.04-2.33c-0.36-0.93-1.4-1.4-2.33-1.04c-0.93,0.36-1.4,1.4-1.04,2.33
						C262.91,155.45,263.95,155.92,264.88,155.56z"/>
					
						<ellipse transform="matrix(0.8683 -0.4961 0.4961 0.8683 -50.9846 131.0948)" class="st24" cx="221.36" cy="161.55" rx="1.81" ry="1.81"/>
					<path class="st24" d="M216.55,171.4c0.3-0.95-0.23-1.97-1.18-2.26c-0.95-0.3-1.97,0.23-2.26,1.18
						c-0.3,0.95,0.23,1.97,1.18,2.26C215.23,172.89,216.25,172.36,216.55,171.4z"/>
					
						<ellipse transform="matrix(0.9312 -0.3644 0.3644 0.9312 -40.4132 94.7242)" class="st24" cx="230.8" cy="154.45" rx="1.81" ry="1.81"/>
				</g>
				<g>
					<path class="st18" d="M211.45,190.25c-0.55-0.84-1.66-1.07-2.5-0.53c-0.84,0.55-1.07,1.66-0.53,2.5
						c0.55,0.84,1.66,1.07,2.5,0.53C211.76,192.21,212,191.09,211.45,190.25z"/>
					<path class="st18" d="M214.01,201.69c-0.55-0.84-1.66-1.07-2.5-0.53c-0.84,0.55-1.07,1.66-0.53,2.5
						c0.55,0.84,1.66,1.07,2.5,0.53C214.32,203.65,214.55,202.53,214.01,201.69z"/>
					<path class="st18" d="M211.66,180.39c-0.55-0.84-1.66-1.07-2.5-0.53c-0.84,0.55-1.07,1.66-0.53,2.5
						c0.55,0.84,1.66,1.07,2.5,0.53C211.97,182.34,212.2,181.22,211.66,180.39z"/>
					<path class="st18" d="M228.02,218c-0.99-0.09-1.87,0.64-1.96,1.64c-0.09,0.99,0.64,1.87,1.64,1.96
						c0.99,0.09,1.87-0.64,1.96-1.64C229.75,218.97,229.02,218.09,228.02,218z"/>
					<path class="st18" d="M238.58,223.09c-0.99-0.09-1.87,0.64-1.96,1.64c-0.09,0.99,0.64,1.87,1.64,1.96s1.87-0.64,1.96-1.64
						C240.3,224.06,239.57,223.18,238.58,223.09z"/>
					<path class="st18" d="M219.32,210.33c-0.99-0.09-1.87,0.64-1.96,1.64c-0.09,0.99,0.64,1.87,1.64,1.96
						c0.99,0.09,1.87-0.64,1.96-1.64C221.04,211.3,220.31,210.42,219.32,210.33z"/>
					<path class="st18" d="M259.63,222.77c-0.68,0.73-0.65,1.87,0.08,2.55c0.73,0.68,1.87,0.65,2.55-0.08
						c0.68-0.73,0.65-1.87-0.08-2.55C261.46,222,260.31,222.04,259.63,222.77z"/>
					<path class="st18" d="M270.14,217.57c-0.68,0.73-0.65,1.87,0.08,2.55c0.73,0.68,1.87,0.65,2.55-0.08
						c0.68-0.73,0.65-1.87-0.08-2.55C271.96,216.81,270.82,216.84,270.14,217.57z"/>
					<path class="st18" d="M248.23,224.92c-0.68,0.73-0.65,1.87,0.08,2.55c0.73,0.68,1.87,0.65,2.55-0.08
						c0.68-0.73,0.65-1.87-0.08-2.55C250.05,224.15,248.91,224.19,248.23,224.92z"/>
					<path class="st18" d="M282.83,200.45c0.15,0.99,1.07,1.67,2.05,1.52c0.99-0.15,1.67-1.07,1.52-2.05
						c-0.15-0.99-1.07-1.67-2.05-1.52C283.37,198.55,282.69,199.47,282.83,200.45z"/>
					<path class="st18" d="M284.94,189.45c0.15,0.99,1.07,1.67,2.05,1.52c0.99-0.15,1.67-1.07,1.52-2.05
						c-0.15-0.99-1.07-1.67-2.05-1.52C285.47,187.55,284.79,188.47,284.94,189.45z"/>
					<path class="st18" d="M277.27,210.37c0.15,0.99,1.07,1.67,2.05,1.52c0.99-0.15,1.67-1.07,1.52-2.05
						c-0.15-0.99-1.07-1.67-2.05-1.52C277.8,208.46,277.12,209.38,277.27,210.37z"/>
					<path class="st18" d="M278.96,169.87c0.85,0.52,1.96,0.24,2.48-0.61c0.52-0.85,0.24-1.96-0.61-2.48
						c-0.85-0.52-1.96-0.24-2.48,0.61C277.83,168.24,278.1,169.35,278.96,169.87z"/>
					<path class="st18" d="M272.23,161.42c0.85,0.52,1.96,0.24,2.48-0.61c0.52-0.85,0.24-1.96-0.61-2.48
						c-0.85-0.52-1.96-0.24-2.48,0.61C271.1,159.79,271.37,160.91,272.23,161.42z"/>
					<path class="st18" d="M283.94,180.06c0.85,0.52,1.96,0.24,2.48-0.61c0.52-0.85,0.24-1.96-0.61-2.48
						c-0.85-0.52-1.96-0.24-2.48,0.61C282.82,178.43,283.09,179.54,283.94,180.06z"/>
					<path class="st18" d="M253.83,151.83c0.93-0.36,1.4-1.4,1.04-2.33c-0.36-0.93-1.4-1.4-2.33-1.04c-0.93,0.36-1.4,1.4-1.04,2.33
						C251.86,151.72,252.9,152.19,253.83,151.83z"/>
					
						<ellipse transform="matrix(0.947 -0.3213 0.3213 0.947 -35.4376 85.5843)" class="st18" cx="241.62" cy="150.17" rx="1.81" ry="1.81"/>
					<path class="st18" d="M264.35,155.56c0.93-0.36,1.4-1.4,1.04-2.33c-0.36-0.93-1.4-1.4-2.33-1.04c-0.93,0.36-1.4,1.4-1.04,2.33
						C262.37,155.45,263.41,155.92,264.35,155.56z"/>
					
						<ellipse transform="matrix(0.8683 -0.4961 0.4961 0.8683 -51.0542 130.8181)" class="st18" cx="220.82" cy="161.55" rx="1.81" ry="1.81"/>
					<path class="st18" d="M216.01,171.4c0.3-0.95-0.23-1.97-1.18-2.26c-0.95-0.3-1.97,0.23-2.26,1.18
						c-0.3,0.95,0.23,1.97,1.18,2.26C214.7,172.89,215.71,172.36,216.01,171.4z"/>
					
						<ellipse transform="matrix(0.9312 -0.3645 0.3645 0.9312 -40.4541 94.5461)" class="st18" cx="230.26" cy="154.45" rx="1.81" ry="1.81"/>
				</g>
				<g>
					
						<rect x="208.25" y="191.06" transform="matrix(-1.263110e-08 -1 1 -1.263110e-08 18.7 401.1818)" class="st25" width="3.37" height="0.36"/>
					
						<rect x="210.81" y="202.5" transform="matrix(-1.263083e-08 -1 1 -1.263083e-08 9.8172 415.1733)" class="st25" width="3.37" height="0.36"/>
					
						<rect x="208.46" y="181.19" transform="matrix(-1.263110e-08 -1 1 -1.263110e-08 28.7689 391.519)" class="st25" width="3.37" height="0.36"/>
					
						<rect x="226.17" y="219.61" transform="matrix(-1.263110e-08 -1 1 -1.263110e-08 8.0636 447.6538)" class="st25" width="3.37" height="0.36"/>
					
						<rect x="236.73" y="224.71" transform="matrix(2.095217e-05 -1 1 2.095217e-05 13.5232 463.2953)" class="st25" width="3.37" height="0.36"/>
					
						<rect x="217.46" y="211.94" transform="matrix(-1.263110e-08 -1 1 -1.263110e-08 7.0255 431.2763)" class="st25" width="3.37" height="0.36"/>
					
						<rect x="259.26" y="223.82" transform="matrix(-1.263083e-08 -1 1 -1.263083e-08 36.9471 484.9503)" class="st25" width="3.37" height="0.36"/>
					
						<rect x="269.77" y="218.63" transform="matrix(-1.263137e-08 -1 1 -1.263137e-08 52.6455 490.263)" class="st25" width="3.37" height="0.36"/>
					
						<rect x="247.86" y="225.97" transform="matrix(-1.263083e-08 -1 1 -1.263083e-08 23.3941 475.6973)" class="st25" width="3.37" height="0.36"/>
					
						<rect x="282.93" y="200.01" transform="matrix(-1.263083e-08 -1 1 -1.263083e-08 84.432 484.8077)" class="st25" width="3.37" height="0.36"/>
					
						<rect x="285.04" y="189" transform="matrix(2.095217e-05 -1 1 2.095217e-05 97.5348 475.9074)" class="st25" width="3.37" height="0.36"/>
					
						<rect x="277.37" y="209.92" transform="matrix(-1.263083e-08 -1 1 -1.263083e-08 68.9513 489.1578)" class="st25" width="3.37" height="0.36"/>
					
						<rect x="278.2" y="168.14" transform="matrix(-2.541970e-06 -1 1 -2.541970e-06 111.5669 448.214)" class="st25" width="3.37" height="0.36"/>
					
						<rect x="271.47" y="159.69" transform="matrix(-1.263137e-08 -1 1 -1.263137e-08 113.2862 433.0353)" class="st25" width="3.37" height="0.36"/>
					
						<rect x="283.19" y="178.33" transform="matrix(-1.845495e-05 -1 1 -1.845495e-05 106.3701 463.3951)" class="st25" width="3.37" height="0.36"/>
					
						<rect x="251.5" y="149.96" transform="matrix(-1.263137e-08 -1 1 -1.263137e-08 103.0451 403.3279)" class="st25" width="3.37" height="0.36"/>
					
						<rect x="239.93" y="149.99" transform="matrix(-1.263110e-08 -1 1 -1.263110e-08 91.4429 391.7921)" class="st25" width="3.37" height="0.36"/>
					
						<rect x="262.01" y="153.69" transform="matrix(-1.263083e-08 -1 1 -1.263083e-08 109.8294 417.573)" class="st25" width="3.37" height="0.36"/>
					
						<rect x="219.14" y="161.37" transform="matrix(-1.263110e-08 -1 1 -1.263110e-08 59.2709 382.3739)" class="st25" width="3.37" height="0.36"/>
					
						<rect x="212.6" y="170.68" transform="matrix(-1.263110e-08 -1 1 -1.263110e-08 43.4222 385.1476)" class="st25" width="3.37" height="0.36"/>
					
						<rect x="228.57" y="154.27" transform="matrix(-1.263110e-08 -1 1 -1.263110e-08 75.8098 384.7119)" class="st25" width="3.37" height="0.36"/>
				</g>
			</g>
		</g>
		<path class="st5" d="M248.18,31.9c0,0-12.67,1.27-37.3,35.43c-26.01,36.08-26.63,74.88-26.78,101.57
			c-0.19,34.53,10.68,102.67,30.78,149.84l0,0C214.88,318.74,146.29,125.21,248.18,31.9z"/>
		<polygon class="st5" points="221.93,318.64 221.88,324.77 219.74,324.8 219.72,318.69 		"/>
		<g class="st26">
			<defs>
				<path id="SVGID_23_" class="st26" d="M285.7,66.94c-24.84-33.9-37.52-35.03-37.52-35.03s-12.67,1.27-37.3,35.43
					c-26.01,36.08-26.63,74.88-26.78,101.57c-0.15,27.55,6.74,76.5,19.74,119.12c3.29,10.8,6.98,21.19,11.04,30.72l34.19-0.36
					l34.19,0c19.8-47.38,30.26-115.63,29.85-150.16C312.79,141.53,311.94,102.74,285.7,66.94z"/>
			</defs>
			<clipPath id="SVGID_24_">
				<use xlink:href="#SVGID_23_"  style="overflow:visible;"/>
			</clipPath>
			
				<linearGradient id="SVGID_25_" gradientUnits="userSpaceOnUse" x1="452.4097" y1="295.3249" x2="307.9954" y2="205.1447" gradientTransform="matrix(0.7071 -0.7071 0.7071 0.7071 -103.5534 250)">
				<stop  offset="0" style="stop-color:#1D262D"/>
				<stop  offset="1" style="stop-color:#1D262D;stop-opacity:0"/>
			</linearGradient>
			<path class="st27" d="M283.25,318.38c0,0,61.47-187.81-35.07-286.48l50.61-19.74l62.85,295.67
				C361.65,307.84,329.37,322.49,283.25,318.38z"/>
		</g>
		
			<linearGradient id="SVGID_26_" gradientUnits="userSpaceOnUse" x1="245.784" y1="289.8139" x2="260.7313" y2="323.2996" gradientTransform="matrix(0.7071 -0.7071 0.7071 0.7071 -103.5534 250)">
			<stop  offset="0" style="stop-color:#1D262D"/>
			<stop  offset="1" style="stop-color:#1D262D;stop-opacity:0"/>
		</linearGradient>
		<path class="st28" d="M283.25,318.38l11.42,6.49c0,0,12.15-35.79,7.74-69.59l0,0C302.41,255.29,291.79,297.73,283.25,318.38z"/>
		<path class="st5" d="M308.33,365.17c0.15-14.59-4.06-24.33-4.91-26.14c0.17,0.39,0.47,1.19,0.84,2.64
			c1.38,4.66,2.21,10.37,2.59,17.69c0.48,9.33,0.57,22.25,2.44,26c0.42,0.77,0.89,1.07,1.4,1.04c0,0,0.01,0,0.01,0
			C310.69,386.37,308.16,381.35,308.33,365.17z"/>
	</g>
</g>
<g id="DESIGNED_BY_FREEPIK">
</g>
</svg>
